<svg width="24" height="24" viewBox="0 0 24 24" fill="none" xmlns="http://www.w3.org/2000/svg">
<g clip-path="url(#clip0_120:893)">
<path fill-rule="evenodd" clip-rule="evenodd" d="M15.8213 1.40293C13.6375 0.884513 11.3625 0.884512 9.1787 1.40293C7.92182 0.607552 6.95265 0.236178 6.23798 0.0775167C5.8447 -0.00979209 5.52983 -0.0323303 5.28952 -0.0257163C5.16964 -0.0224168 5.06946 -0.0118899 4.98855 0.00101352C4.94814 0.00745702 4.91271 0.0144664 4.8822 0.0214048C4.86695 0.0248725 4.85294 0.028318 4.84018 0.0316599L4.82197 0.0365824L4.81357 0.0389644L4.80954 0.040132L4.80758 0.0407096C4.8066 0.0409964 4.80564 0.0412828 5.09 0.999999L4.80564 0.0412828C4.52062 0.125823 4.28799 0.332797 4.17087 0.60605C3.63637 1.85309 3.53731 3.23744 3.87893 4.5386L5.09 0.999999L9.1787 1.40293L11.7754 3.03534C10.9291 3.08496 10.0866 3.22157 9.26159 3.44518C8.98217 3.52091 8.68366 3.47183 8.4432 3.31064C7.15565 2.44756 6.29226 2.13826 5.80452 2.02998L5.79702 2.02832C5.60377 2.81668 5.64953 3.65036 5.93688 4.42036C6.07069 4.7789 5.98814 5.18237 5.72425 5.45954C5.11884 6.09542 4.7198 6.89174 4.56831 7.7447L2.5 8.55259C2.50053 11.4806 3.40371 13.4444 4.89892 14.7016C5.90701 15.5493 7.11237 16.012 8.29945 16.2827C8.28435 16.3207 8.26977 16.3591 8.25573 16.3976C8.12734 16.75 8.04519 17.1165 8.01056 17.488L2.9482 15.3184C2.73819 15.1963 2.50422 15.0953 2.24254 15.0299C1.73679 14.9034 1.21876 15.1867 1.05233 15.6808C0.885902 16.1748 1.12692 16.7138 1.60608 16.9191L2.01852 17.0959C2.14307 17.1837 2.28834 17.3222 2.47313 17.5391C2.58629 17.6719 2.69175 17.8058 2.81218 17.9588L2.81227 17.9589C2.86874 18.0306 2.9285 18.1064 2.99388 18.1883C3.18643 18.4295 3.40925 18.6985 3.66789 18.9571C4.19643 19.4856 4.88547 19.9823 5.85024 20.2081C6.4844 20.3565 7.19383 20.3777 8 20.2543V22C8 22.5523 8.44772 23 9 23C9.55229 23 10 22.5523 10 22V19.0042V18.9952V18.13C10 18.1066 9.99918 18.0832 9.99754 18.0598C9.97419 17.7279 10.021 17.3949 10.1349 17.0822C10.2488 16.7696 10.4272 16.4845 10.6586 16.2454C10.9223 15.973 11.0092 15.5749 10.8831 15.2174C10.7569 14.8598 10.4395 14.6044 10.0633 14.5576C8.54445 14.369 7.17558 14.0029 6.18608 13.1709C5.24674 12.381 4.5 11.0405 4.50001 8.55L4.49999 8.54468C4.49855 8.27468 4.52173 8.00701 4.56831 7.7447L13.6338 4.20367L20.5 8.52018C20.5 11.0338 19.7513 12.3827 18.8139 13.1709C17.828 13.9999 16.463 14.3574 14.9492 14.5262C14.57 14.5684 14.2479 14.8228 14.1189 15.1818C13.9899 15.5409 14.0764 15.9421 14.342 16.2161C14.5762 16.4576 14.7562 16.7462 14.8702 17.0626C14.9842 17.3791 15.0295 17.7162 15.0031 18.0516C15.001 18.0777 15 18.1038 15 18.13V22C15 22.5523 15.4477 23 16 23C16.5523 23 17 22.5523 17 22V18.1667C17.0417 17.5622 16.9573 16.9554 16.7519 16.3849C16.7376 16.3452 16.7227 16.3058 16.7073 16.2666C17.8926 16.0053 19.0948 15.5478 20.1011 14.7016C21.5987 13.4423 22.5 11.4663 22.5 8.52V8.51982C22.4997 7.06996 22.0105 5.66888 21.1211 4.53862C21.4627 3.23746 21.3636 1.8531 20.8291 0.60605L19.91 0.999999C20.1944 0.0412828 20.1934 0.0409964 20.1924 0.0407096L20.1905 0.040132L20.1864 0.0389644L20.178 0.0365824L20.1598 0.0316599C20.1471 0.028318 20.1331 0.0248725 20.1178 0.0214048C20.0873 0.0144664 20.0519 0.00745702 20.0115 0.00101352C19.9305 -0.0118899 19.8304 -0.0224168 19.7105 -0.0257163C19.4702 -0.0323303 19.1553 -0.00979209 18.762 0.0775167C18.0473 0.236178 17.0782 0.607552 15.8213 1.40293ZM15.6417 3.41938L13.6338 4.20367L11.7754 3.03534C13.0713 2.95936 14.3762 3.08737 15.6417 3.41938ZM17.7462 2.59736L15.6417 3.41938C15.674 3.42785 15.7062 3.43645 15.7384 3.44518C16.0178 3.52091 16.3163 3.47183 16.5568 3.31064C17.0037 3.01109 17.3995 2.77825 17.7462 2.59736ZM19.203 2.02832L17.7462 2.59736C18.3984 2.25708 18.877 2.10068 19.1955 2.02998L19.203 2.02832ZM19.203 2.02832C19.2309 2.14232 19.2539 2.25727 19.2718 2.37283L19.203 2.02832ZM20.1595 6.81583L19.2718 2.37283C19.3779 3.05645 19.3089 3.76171 19.0631 4.42036C18.9293 4.77889 19.0119 5.18235 19.2757 5.45952C19.6544 5.85726 19.9524 6.31782 20.1595 6.81583ZM20.5 8.52L20.1595 6.81583C20.3822 7.35113 20.4999 7.9297 20.5 8.52Z" fill="#141414"/>
</g>
<defs>
<clipPath id="clip0_120:893">
<rect width="24" height="24" fill="white"/>
</clipPath>
</defs>
</svg>
