<svg width="24" height="24" viewBox="0 0 24 24" fill="none" xmlns="http://www.w3.org/2000/svg">
<g clip-path="url(#clip0_118:437)">
<path fill-rule="evenodd" clip-rule="evenodd" d="M17.8098 2.15382C16.7207 1.88133 15.5743 1.94987 14.5255 2.35018C13.4767 2.75048 12.5761 3.46324 11.9456 4.39204C11.322 5.31064 10.9923 6.39674 10.9997 7.5064C9.7424 7.4119 8.51245 7.0719 7.3806 6.5022C5.95764 5.78597 4.73389 4.72895 3.81835 3.42527L3 3.99999L2.10557 3.55277C2.09762 3.56867 2.09012 3.58472 2.08308 3.6009L2.08013 3.60765L2.06855 3.63458C2.05909 3.65683 2.04621 3.68764 2.03044 3.72657C1.99891 3.8044 1.95576 3.91487 1.90527 4.05452C1.80442 4.33349 1.67358 4.73076 1.54747 5.21835C1.29648 6.18888 1.0577 7.54227 1.12603 9.04539C1.19455 10.5529 1.57342 12.2316 2.57705 13.8163C3.32942 15.0042 4.41158 16.1054 5.91473 17.033C4.39637 17.7325 2.72656 18.0679 1.03974 18.0008C0.57702 17.9824 0.162194 18.2841 0.0371451 18.73C-0.0879035 19.1758 0.109542 19.6492 0.514353 19.8741C5.29087 22.5278 10.6509 22.5525 14.8448 20.3202C19.0631 18.075 22 13.5999 22 7.49998L22 7.49668C21.9995 7.33442 21.9917 7.17236 21.9769 7.01096C22.9424 5.93955 23.6291 4.64313 23.9716 3.2366L23 2.99999L22.4236 2.18282C21.7151 2.68256 20.9448 3.08657 20.1326 3.38509C19.4723 2.79454 18.6758 2.37051 17.8098 2.15382ZM3.12396 8.95458C3.07427 7.86122 3.22095 6.84496 3.40464 6.04359C4.29724 6.95247 5.33584 7.71206 6.48141 8.28866C8.19898 9.15317 10.1037 9.57949 12.0259 9.52965C12.5679 9.51559 13 9.07217 13 8.52998V7.52999H13.0001L12.9999 7.51658C12.9903 6.80375 13.1999 6.10519 13.6003 5.51536C14.0008 4.92553 14.5726 4.47291 15.2387 4.2187C15.9047 3.96449 16.6327 3.92096 17.3243 4.094C18.0159 4.26705 18.6376 4.64831 19.1054 5.18622C19.3636 5.48302 19.7717 5.60093 20.1483 5.48752C20.38 5.41777 20.6092 5.34104 20.8357 5.25749C20.6469 5.50415 20.4406 5.73829 20.2178 5.95798C19.9802 6.19236 19.8751 6.52987 19.9378 6.85774C19.9784 7.06999 19.9992 7.28555 20 7.50165C19.9995 12.9008 17.4365 16.6751 13.9051 18.5547C11.307 19.9376 8.13026 20.3233 4.9601 19.5157C6.2342 19.1488 7.45069 18.5815 8.56163 17.8274C8.86205 17.6234 9.02833 17.2727 8.99603 16.911C8.96374 16.5494 8.73794 16.2336 8.40613 16.0862C6.31604 15.1572 5.04028 13.9676 4.26669 12.7462C3.48907 11.5184 3.18044 10.1971 3.12396 8.95458Z" fill="#141414"/>
</g>
<defs>
<clipPath id="clip0_118:437">
<rect width="24" height="24" fill="white"/>
</clipPath>
</defs>
</svg>
